<svg xmlns="http://www.w3.org/2000/svg" viewBox="0 0 200 40" width="200" height="40">
  <defs>
    <linearGradient id="fio-est" x1="0%" y1="0%" x2="0%" y2="100%">
      <stop offset="0%" stop-color="#f5f0e8"/>
      <stop offset="50%" stop-color="#e0d8c0"/>
      <stop offset="100%" stop-color="#c8b898"/>
    </linearGradient>
    <radialGradient id="bkt-est" cx="35%" cy="35%" r="65%">
      <stop offset="0%" stop-color="#f8f4ec"/>
      <stop offset="60%" stop-color="#ede5d0"/>
      <stop offset="100%" stop-color="#c8b898"/>
    </radialGradient>
    <filter id="shd-est"><feDropShadow dx="0" dy="1" stdDeviation="1" flood-color="#00000033"/></filter>
  </defs>
  <path d="M8,20 Q50,16 100,16 Q150,16 192,20" fill="none" stroke="url(#fio-est)" stroke-width="2" filter="url(#shd-est)"/>
  <g fill="url(#bkt-est)" stroke="#c8b898" stroke-width="0.6">
    <rect x="20" y="13" width="10" height="14" rx="2" filter="url(#shd-est)"/>
    <rect x="18" y="18" width="14" height="4" rx="1.5" fill="#e8dfc8" stroke="#c8b898" stroke-width="0.5"/>
    <rect x="44" y="12" width="10" height="14" rx="2" filter="url(#shd-est)"/>
    <rect x="42" y="17" width="14" height="4" rx="1.5" fill="#e8dfc8" stroke="#c8b898" stroke-width="0.5"/>
    <rect x="70" y="11" width="10" height="14" rx="2" filter="url(#shd-est)"/>
    <rect x="68" y="16" width="14" height="4" rx="1.5" fill="#e8dfc8" stroke="#c8b898" stroke-width="0.5"/>
    <rect x="95" y="11" width="10" height="14" rx="2" filter="url(#shd-est)"/>
    <rect x="93" y="16" width="14" height="4" rx="1.5" fill="#e8dfc8" stroke="#c8b898" stroke-width="0.5"/>
    <rect x="120" y="11" width="10" height="14" rx="2" filter="url(#shd-est)"/>
    <rect x="118" y="16" width="14" height="4" rx="1.5" fill="#e8dfc8" stroke="#c8b898" stroke-width="0.5"/>
    <rect x="146" y="12" width="10" height="14" rx="2" filter="url(#shd-est)"/>
    <rect x="144" y="17" width="14" height="4" rx="1.5" fill="#e8dfc8" stroke="#c8b898" stroke-width="0.5"/>
    <rect x="170" y="13" width="10" height="14" rx="2" filter="url(#shd-est)"/>
    <rect x="168" y="18" width="14" height="4" rx="1.5" fill="#e8dfc8" stroke="#c8b898" stroke-width="0.5"/>
  </g>
</svg>
