<svg xmlns="http://www.w3.org/2000/svg" viewBox="0 0 70 90" width="70" height="90">
  <defs>
    <radialGradient id="cp" cx="38%" cy="28%" r="65%">
      <stop offset="0%" stop-color="#f8f4ec"/>
      <stop offset="45%" stop-color="#ede5d0"/>
      <stop offset="100%" stop-color="#c8b898"/>
    </radialGradient>
    <radialGradient id="cp2" cx="55%" cy="22%" r="38%">
      <stop offset="0%" stop-color="#ffffff" stop-opacity="0.65"/>
      <stop offset="100%" stop-color="#ffffff" stop-opacity="0"/>
    </radialGradient>
    <filter id="shadow-p"><feDropShadow dx="1" dy="2" stdDeviation="2" flood-color="#00000033"/></filter>
  </defs>
  <path d="M14,62 C12,55 11,40 13,28 C15,18 20,11 27,8 C31,6 34,10 35,10 C36,10 39,6 43,8 C50,11 55,18 57,28 C59,40 58,55 56,62 C50,68 42,70 35,70 C28,70 20,68 14,62 Z"
    fill="url(#cp)" filter="url(#shadow-p)" stroke="#b0a080" stroke-width="0.8"/>
  <!-- 2 cúspides -->
  <path d="M27,8 C25,3 24,0 27,0 C31,0 33,5 33,8" fill="url(#cp)" stroke="#b0a080" stroke-width="0.7"/>
  <path d="M43,8 C41,3 42,0 45,0 C48,0 46,5 43,8" fill="url(#cp)" stroke="#b0a080" stroke-width="0.7"/>
  <!-- sulco central -->
  <path d="M35,8 L35,62" fill="none" stroke="#c8a87033" stroke-width="0.8"/>
  <path d="M27,8 Q35,18 43,8" fill="none" stroke="#c8a87055" stroke-width="1"/>
  <!-- reflexo -->
  <ellipse cx="27" cy="24" rx="8" ry="5" fill="url(#cp2)"/>
  <path d="M16,62 Q35,72 54,62" fill="none" stroke="#b0a08055" stroke-width="1"/>
</svg>
