<svg xmlns="http://www.w3.org/2000/svg" viewBox="0 0 55 100" width="55" height="100">
  <defs>
    <radialGradient id="cil" cx="38%" cy="25%" r="65%">
      <stop offset="0%" stop-color="#f8f4ec"/>
      <stop offset="40%" stop-color="#ede5d0"/>
      <stop offset="100%" stop-color="#c8b898"/>
    </radialGradient>
    <radialGradient id="cil2" cx="35%" cy="18%" r="38%">
      <stop offset="0%" stop-color="#ffffff" stop-opacity="0.7"/>
      <stop offset="100%" stop-color="#ffffff" stop-opacity="0"/>
    </radialGradient>
    <filter id="shadow-il"><feDropShadow dx="1" dy="2" stdDeviation="1.5" flood-color="#00000033"/></filter>
  </defs>
  <path d="M10,72 C8,62 8,42 11,26 C14,13 20,5 27.5,3 C35,5 41,13 44,26 C47,42 47,62 45,72 C40,78 33,80 27.5,80 C22,80 15,78 10,72 Z"
    fill="url(#cil)" filter="url(#shadow-il)" stroke="#b0a080" stroke-width="0.8"/>
  <!-- borda incisal levemente convexa -->
  <path d="M14,26 Q27.5,16 41,26" fill="none" stroke="#c8a87055" stroke-width="1"/>
  <path d="M12,50 Q27.5,44 43,50" fill="none" stroke="#c8a87033" stroke-width="0.8"/>
  <!-- reflexo -->
  <ellipse cx="20" cy="24" rx="7" ry="9" fill="url(#cil2)"/>
  <path d="M12,72 Q27.5,82 43,72" fill="none" stroke="#b0a08055" stroke-width="1"/>
</svg>
