<svg xmlns="http://www.w3.org/2000/svg" viewBox="0 0 40 110" width="40" height="110">
  <defs>
    <linearGradient id="im-g" x1="0%" y1="0%" x2="100%" y2="0%">
      <stop offset="0%" stop-color="#546e7a"/>
      <stop offset="30%" stop-color="#b0bec5"/>
      <stop offset="55%" stop-color="#eceff1"/>
      <stop offset="80%" stop-color="#b0bec5"/>
      <stop offset="100%" stop-color="#546e7a"/>
    </linearGradient>
    <filter id="shdm"><feDropShadow dx="0.5" dy="1" stdDeviation="1" flood-color="#00000044"/></filter>
  </defs>
  <!-- cabeça pequena -->
  <path d="M16,6 L24,6 L26,12 L24,18 L16,18 L14,12 Z" fill="url(#im-g)" filter="url(#shdm)" stroke="#546e7a" stroke-width="0.7"/>
  <path d="M18,12 L22,12 M20,9 L20,15" stroke="#37474f" stroke-width="1.2" stroke-linecap="round"/>
  <!-- corpo fino -->
  <path d="M17,18 L17,88 Q17,95 20,97 Q23,95 23,88 L23,18 Z" fill="url(#im-g)" stroke="#546e7a" stroke-width="0.5"/>
  <g stroke="#546e7a44" stroke-width="0.7" fill="none">
    <path d="M15,23 Q20,25 25,23"/><path d="M15,28 Q20,30 25,28"/>
    <path d="M15,33 Q20,35 25,33"/><path d="M15,38 Q20,40 25,38"/>
    <path d="M15,43 Q20,45 25,43"/><path d="M15,48 Q20,50 25,48"/>
    <path d="M15,53 Q20,55 25,53"/><path d="M15,58 Q20,60 25,58"/>
    <path d="M15,63 Q20,65 25,63"/><path d="M15,68 Q20,70 25,68"/>
    <path d="M15,73 Q20,75 25,73"/><path d="M15,78 Q20,80 25,78"/>
    <path d="M15,83 Q20,85 25,83"/>
  </g>
  <rect x="18.5" y="19" width="2" height="68" rx="1" fill="white" fill-opacity="0.2"/>
</svg>
