<svg xmlns="http://www.w3.org/2000/svg" viewBox="0 0 200 70" width="200" height="70">
  <defs>
    <linearGradient id="gengiva-inf" x1="0%" y1="0%" x2="0%" y2="100%">
      <stop offset="0%" stop-color="#c62828"/>
      <stop offset="40%" stop-color="#ef9a9a"/>
      <stop offset="100%" stop-color="#e57373"/>
    </linearGradient>
    <radialGradient id="dente-inf" cx="40%" cy="30%" r="65%">
      <stop offset="0%" stop-color="#f8f4ec"/>
      <stop offset="50%" stop-color="#ede5d0"/>
      <stop offset="100%" stop-color="#c8b898"/>
    </radialGradient>
    <filter id="shd-inf"><feDropShadow dx="0" dy="2" stdDeviation="2" flood-color="#00000044"/></filter>
  </defs>
  <!-- gengiva inferior (invertida) -->
  <path d="M10,14 Q55,8 100,6 Q145,8 190,14 Q180,40 160,50 Q140,58 100,60 Q60,58 40,50 Q20,40 10,14 Z"
    fill="url(#gengiva-inf)" filter="url(#shd-inf)" stroke="#c62828" stroke-width="0.5"/>
  <!-- dentes inferiores - menores que superiores -->
  <path d="M22,22 C21,16 22,11 25,9 C27,7 30,7 32,10 C34,7 36,8 37,11 C38,14 37,20 35,23 Q28,26 22,22 Z" fill="url(#dente-inf)" stroke="#c8b88888" stroke-width="0.6"/>
  <path d="M38,20 C37,15 38,10 41,8 C43,6 46,7 47,10 C49,7 51,8 51,12 C52,15 50,20 48,22 Q43,24 38,20 Z" fill="url(#dente-inf)" stroke="#c8b88888" stroke-width="0.6"/>
  <path d="M52,18 C51,13 52,9 55,7 C57,5 60,5 61,8 C63,5 65,6 65,10 C66,14 64,18 62,20 Q57,22 52,18 Z" fill="url(#dente-inf)" stroke="#c8b88888" stroke-width="0.6"/>
  <path d="M65,17 C64,12 65,8 68,6 C70,4 73,4 74,7 C76,4 78,5 78,9 C79,13 77,17 75,19 Q70,21 65,17 Z" fill="url(#dente-inf)" stroke="#c8b88888" stroke-width="0.6"/>
  <path d="M78,16 C77,11 78,7 81,5 C83,3 86,3 87,6 C89,3 91,4 91,8 C92,12 90,16 88,18 Q83,20 78,16 Z" fill="url(#dente-inf)" stroke="#c8b88888" stroke-width="0.6"/>
  <path d="M91,16 C90,11 91,7 94,5 C96,3 99,3 100,6 C102,3 104,4 104,8 C105,12 103,16 101,18 Q96,20 91,16 Z" fill="url(#dente-inf)" stroke="#c8b88888" stroke-width="0.6"/>
  <path d="M104,17 C103,12 104,8 107,6 C109,4 112,4 113,7 C115,4 117,5 117,9 C118,13 116,17 114,19 Q109,21 104,17 Z" fill="url(#dente-inf)" stroke="#c8b88888" stroke-width="0.6"/>
  <path d="M117,18 C116,13 117,9 120,7 C122,5 125,5 126,8 C128,5 130,6 130,10 C131,14 129,18 127,20 Q122,22 117,18 Z" fill="url(#dente-inf)" stroke="#c8b88888" stroke-width="0.6"/>
  <path d="M130,20 C129,15 130,10 133,8 C135,6 138,7 139,10 C141,7 143,8 143,12 C144,15 142,20 140,22 Q135,24 130,20 Z" fill="url(#dente-inf)" stroke="#c8b88888" stroke-width="0.6"/>
  <path d="M143,22 C141,16 142,11 145,9 C147,7 150,7 152,10 C154,7 156,8 157,11 C158,14 157,20 155,23 Q149,26 143,22 Z" fill="url(#dente-inf)" stroke="#c8b88888" stroke-width="0.6"/>
  <path d="M157,23 C155,17 156,12 159,9 C162,7 165,7 167,10 C169,7 172,8 173,12 C174,16 172,22 170,25 Q164,28 157,23 Z" fill="url(#dente-inf)" stroke="#c8b88888" stroke-width="0.6"/>
</svg>
